<svg xmlns="http://www.w3.org/2000/svg" xmlns:xlink="http://www.w3.org/1999/xlink" viewBox="0 0 441.85 67.96"><g id="Layer_2" data-name="Layer 2"><g id="Layer_1-2" data-name="Layer 1"><path d="M6.15,40.82v-2L24.4,26.11v2.4L8.3,39.7v.2L24.4,51.09v2.4Z" transform="translate(-6.15)"/><path d="M41.25,47.42V34.32H34V32.6l7.31-.21.29-7.95h1.89v8H56.24v1.93H43.47V47.58c0,4.68,1.34,7.48,6.69,7.48a16.65,16.65,0,0,0,6.39-1.25l.61,1.7A18.5,18.5,0,0,1,49.85,57C43.26,57,41.25,53.13,41.25,47.42Z" transform="translate(-6.15)"/><path d="M63.36,44.44c0-8,5.35-12.65,11.64-12.65S86.64,36.4,86.64,44.44,81.29,57,75,57,63.36,52.39,63.36,44.44Zm21,0c0-6.32-3.9-10.69-9.32-10.69s-9.32,4.37-9.32,10.69S69.58,55,75,55,84.32,50.76,84.32,44.44Z" transform="translate(-6.15)"/><path d="M94.32,47.35v-15h2.22V47.05c0,5.35,2,8,6.77,8,3.38,0,5.9-1.7,9.19-5.43V32.39h2.22v24h-1.89l-.24-4.65h-.2c-2.59,3-5.59,5.25-9.45,5.25C97.12,57,94.32,53.86,94.32,47.35Z" transform="translate(-6.15)"/><path d="M124.18,61c0-1.88,1.47-4,4.07-5.66v-.2a4.22,4.22,0,0,1-2.5-3.85,5.89,5.89,0,0,1,2.9-4.52v-.2a7.87,7.87,0,0,1-2.85-6.23,8.64,8.64,0,0,1,8.93-8.55,8.19,8.19,0,0,1,3.31.6h10v1.93h-7.24a8.59,8.59,0,0,1,2.81,6.07c0,4.9-4,8.38-8.89,8.38a10.23,10.23,0,0,1-4.54-1.12A4.2,4.2,0,0,0,127.86,51c0,2.3,2.17,3.35,5.52,3.35h6c6.11,0,8.74,1.52,8.74,5.41,0,4.14-4.92,8.2-12.7,8.2C127.92,68,124.18,65.19,124.18,61Zm21.64-1c0-2.71-2.07-3.57-6.28-3.57h-5.7a13.2,13.2,0,0,1-3.66-.44c-2.89,1.54-3.87,3.3-3.87,5,0,2.92,2.93,5.1,8.93,5.1C141.84,66.13,145.82,63,145.82,60Zm-4.4-19.67A6.69,6.69,0,1,0,134.73,47,6.59,6.59,0,0,0,141.42,40.34Z" transform="translate(-6.15)"/><path d="M155.27,20.43h2.22V30.86l-.14,6.3h.11c2.85-3.14,5.77-5.37,9.6-5.37,5.82,0,8.62,3.15,8.62,9.65v15h-2.22V41.74c0-5.37-2-8-6.76-8-3.41,0-5.76,1.78-9.21,5.4V56.4h-2.22Z" transform="translate(-6.15)"/><path d="M214.36,44.44c0-8,5.91-12.65,13.08-12.65a11.82,11.82,0,0,1,8.63,3.66L234.78,37a10.37,10.37,0,0,0-7.3-3.22c-6.4,0-10.8,4.37-10.8,10.69S221,55,227.45,55a11.76,11.76,0,0,0,8.08-3.45l1.16,1.54A13.35,13.35,0,0,1,227.37,57C219.92,57,214.36,52.39,214.36,44.44Z" transform="translate(-6.15)"/><path d="M243.36,44.44c0-8,5.35-12.65,11.64-12.65s11.63,4.61,11.63,12.65S261.29,57,255,57,243.36,52.39,243.36,44.44Zm20.95,0c0-6.32-3.9-10.69-9.31-10.69s-9.32,4.37-9.32,10.69S249.58,55,255,55,264.31,50.76,264.31,44.44Z" transform="translate(-6.15)"/><path d="M273.36,44.44c0-8,5.35-12.65,11.64-12.65s11.63,4.61,11.63,12.65S291.29,57,285,57,273.36,52.39,273.36,44.44Zm20.95,0c0-6.32-3.9-10.69-9.31-10.69s-9.32,4.37-9.32,10.69S279.58,55,285,55,294.31,50.76,294.31,44.44Z" transform="translate(-6.15)"/><path d="M306.16,20.43h2.22V46.85h.2L324,32.39h2.75L308.38,49.58V56.4h-2.22Zm8.73,22,1.48-1.54,12,15.46h-2.56Z" transform="translate(-6.15)"/><path d="M346.87,34.32h-12V32.39h14.23v24h-2.22Zm-1.76-10.16a2.36,2.36,0,1,1,4.71,0,2.36,2.36,0,1,1-4.71,0Z" transform="translate(-6.15)"/><path d="M363.83,44.42c0-7.83,5.76-12.63,12-12.63,6.56,0,10.73,4.22,10.73,11.11a11.3,11.3,0,0,1-.12,1.84H364.94V42.85h20.58l-.94.9c0-6.81-3.54-10.06-8.68-10.06s-9.79,3.91-9.79,10.65c0,7,4.83,10.74,10.52,10.74a13.65,13.65,0,0,0,8.06-2.59l.91,1.68A15.59,15.59,0,0,1,376.5,57C369.56,57,363.83,52.3,363.83,44.42Z" transform="translate(-6.15)"/><path d="M395.6,51.09,411.69,39.9v-.2L395.6,28.51v-2.4l18.25,12.67v2L395.6,53.49Z" transform="translate(-6.15)"/><image width="250" height="250" transform="translate(397.85) scale(0.18)" xlink:href="toughCookieLogo.png"/></g></g></svg>